<?xml version="1.0" encoding="UTF-8"?>
<svg id="Livello_2" data-name="Livello 2" xmlns="http://www.w3.org/2000/svg" viewBox="0 0 200 200">
  <defs>
    <style>
      .cls-1 {
        fill: #fff;
      }

      .cls-1, .cls-2, .cls-3 {
        stroke-width: 0px;
      }

      .cls-2 {
        fill: #cf0d33;
      }

      .cls-3 {
        fill: #001540;
      }
    </style>
  </defs>
  <g id="OBJECTS">
    <g>
      <ellipse class="cls-2" cx="100" cy="94.57" rx="63.24" ry="66.66"/>
      <path class="cls-3" d="m190.19,49.54c-4.99-10.64-11.7-21.75-20.28-29.61-8.04-8.17-17.35-14.94-27.45-19.93l3.6,2.24c22.33,14.2,39.78,36.72,46.21,63.6,7.56,31.58-.02,65.33-20.22,89.99-14.55,17.76-34.39,28.93-56.13,33.17-5.04.86-10.8,1.29-15.91,1.29-5.12,0-10.88-.43-15.92-1.29-21.73-4.25-41.57-15.41-56.13-33.17C7.76,131.18.18,97.42,7.73,65.85,14.17,38.96,31.62,16.44,53.94,2.24l3.6-2.24c-10.1,5-19.41,11.76-27.45,19.93-8.58,7.86-15.3,18.97-20.28,29.61-11.68,24.9-12.86,55-3.95,81.04,12.16,35.53,41.8,60.7,76.71,67.83,5.54,1,11.81,1.52,17.43,1.58,5.63-.06,11.89-.58,17.43-1.58,34.91-7.13,64.55-32.3,76.71-67.83,8.91-26.03,7.73-56.13-3.95-81.04Z"/>
      <g>
        <path class="cls-3" d="m137,176.98l-.61-35.56c-.35-20.36-4.02-40.5-10.85-59.54l-7.89-22.05c-2.01-5.62-1.43-11.9,1.59-16.98,1.7-2.88,3.12-6.18,4.13-9.87,1.15-4.19,1.72-8.61,1.76-13-4.68-3.43-14.17-5.78-25.12-5.78s-20.43,2.35-25.11,5.78c.04,4.39.61,8.81,1.76,13,1.01,3.69,2.42,7,4.13,9.87,3.03,5.09,3.6,11.37,1.59,16.98l-7.9,22.05c-6.82,19.05-10.49,39.18-10.84,59.54l-.62,35.57-.18,9.81c6.32,2.71,12.93,4.79,19.74,6.18,5.54,1,11.8,1.52,17.43,1.58,5.63-.06,11.89-.58,17.43-1.58,6.81-1.39,13.43-3.47,19.75-6.18l-.18-9.82Z"/>
        <path class="cls-1" d="m111.01,24.02c-3.68.39-7.34.58-11,.58s-7.33-.19-11-.58c-3.66-.43-7.29-1.08-10.88-2.2,3.26,1.98,6.94,3.15,10.63,3.93,3.65.8,7.46,1.18,11.26,1.17,3.8,0,7.61-.37,11.26-1.17,3.69-.77,7.37-1.94,10.63-3.93-3.59,1.12-7.22,1.77-10.88,2.2Z"/>
        <g>
          <path class="cls-1" d="m135.5,126.18c-9.1,3.36-21.8,5.28-35.5,5.28s-26.41-1.92-35.5-5.28c-.11,1.08-.2,2.16-.29,3.24,9.34,3.34,22.11,5.24,35.79,5.24s26.45-1.9,35.79-5.24l-.29-3.24Z"/>
          <path class="cls-1" d="m130.86,99.43c-8.23,3.07-19.17,4.8-30.86,4.8s-22.62-1.74-30.85-4.8l.78-3.03c7.97,2.96,18.64,4.64,30.07,4.64s22.09-1.68,30.07-4.64l.78,3.03Z"/>
          <path class="cls-1" d="m121.62,70.96c-6.31,1.84-13.78,2.85-21.63,2.85s-15.31-1.01-21.63-2.85l1.06-2.95c6.03,1.68,13.11,2.61,20.57,2.61s14.55-.92,20.57-2.61l1.05,2.95Z"/>
        </g>
      </g>
      <path class="cls-3" d="m190.19,49.54c-4.99-10.64-11.7-21.75-20.28-29.61-8.04-8.17-17.35-14.94-27.45-19.93l3.6,2.24c22.33,14.2,39.78,36.72,46.21,63.6,7.56,31.58-.02,65.33-20.22,89.99-14.55,17.76-34.39,28.93-56.13,33.17-5.04.86-10.8,1.29-15.91,1.29-5.12,0-10.88-.43-15.92-1.29-21.73-4.25-41.57-15.41-56.13-33.17C7.76,131.18.18,97.42,7.73,65.85,14.17,38.96,31.62,16.44,53.94,2.24l3.6-2.24c-10.1,5-19.41,11.76-27.45,19.93-8.58,7.86-15.3,18.97-20.28,29.61-11.68,24.9-12.86,55-3.95,81.04,12.16,35.53,41.8,60.7,76.71,67.83,5.54,1,11.81,1.52,17.43,1.58,5.63-.06,11.89-.58,17.43-1.58,34.91-7.13,64.55-32.3,76.71-67.83,8.91-26.03,7.73-56.13-3.95-81.04Z"/>
    </g>
  </g>
</svg>