<?xml version="1.0" encoding="UTF-8"?>
<svg id="Livello_2" data-name="Livello 2" xmlns="http://www.w3.org/2000/svg" viewBox="0 0 282.96 268.48">
  <defs>
    <style>
      .cls-1, .cls-2, .cls-3, .cls-4 {
        stroke-width: 0px;
      }

      .cls-2 {
        fill: #fff;
      }

      .cls-3 {
        fill: #cf0d33;
      }

      .cls-4 {
        fill: #001540;
      }
    </style>
  </defs>
  <g id="OBJECTS">
    <g>
      <circle class="cls-3" cx="141.48" cy="126.95" r="89.48" transform="translate(-48.32 137.22) rotate(-45)"/>
      <path class="cls-4" d="m269.08,66.51c-7.06-14.28-16.56-29.2-28.7-39.75-11.38-10.97-24.55-20.05-38.84-26.76l5.1,3.01c31.59,19.06,56.28,49.29,65.38,85.38,10.69,42.39-.03,87.7-28.61,120.8-20.59,23.85-48.66,38.83-79.41,44.53-7.13,1.16-15.28,1.73-22.52,1.73-7.24,0-15.39-.57-22.52-1.73-30.75-5.7-58.82-20.68-79.41-44.53C10.97,176.09.25,130.78,10.94,88.39,20.04,52.3,44.74,22.07,76.32,3.01l5.1-3.01c-14.29,6.71-27.46,15.79-38.84,26.76-12.14,10.55-21.64,25.47-28.7,39.75C-2.63,99.94-4.31,140.34,8.3,175.29c17.2,47.7,59.14,81.48,108.53,91.06,7.84,1.35,16.7,2.05,24.66,2.13,7.96-.08,16.82-.78,24.66-2.13,49.39-9.57,91.33-43.36,108.53-91.06,12.6-34.95,10.93-75.35-5.59-108.78Z"/>
      <g>
        <path class="cls-2" d="m193.83,237.58l-.87-47.74c-.5-27.33-5.69-54.36-15.35-79.93l-11.17-29.6c-2.85-7.54-2.03-15.97,2.25-22.8,2.41-3.86,4.41-8.29,5.84-13.25,1.62-5.63,2.44-11.56,2.49-17.45-6.62-4.6-20.05-7.76-35.54-7.76s-28.9,3.16-35.53,7.76c.05,5.89.87,11.82,2.49,17.45,1.43,4.96,3.43,9.4,5.84,13.25,4.28,6.83,5.1,15.26,2.25,22.8l-11.18,29.6c-9.65,25.57-14.84,52.6-15.34,79.93l-.87,47.75-.25,13.17c8.94,3.64,18.29,6.43,27.93,8.3,7.84,1.34,16.7,2.04,24.66,2.12,7.96-.08,16.82-.78,24.66-2.12,9.64-1.87,19-4.66,27.94-8.3l-.25-13.18Z"/>
        <path class="cls-1" d="m157.06,32.25c-5.2.52-10.38.78-15.57.78s-10.37-.26-15.57-.78c-5.18-.58-10.32-1.45-15.4-2.95,4.61,2.66,9.82,4.23,15.04,5.27,5.17,1.07,10.55,1.58,15.93,1.57,5.38,0,10.76-.5,15.93-1.57,5.22-1.04,10.43-2.61,15.04-5.27-5.08,1.5-10.22,2.37-15.4,2.95Z"/>
        <g>
          <path class="cls-1" d="m191.71,169.38c-12.87,4.51-30.85,7.09-50.23,7.09s-37.36-2.58-50.22-7.09c-.15,1.45-.29,2.9-.41,4.35,13.22,4.48,31.28,7.03,50.63,7.03s37.42-2.55,50.64-7.03l-.41-4.35Z"/>
          <path class="cls-1" d="m185.14,133.48c-11.64,4.12-27.12,6.45-43.66,6.45s-32-2.33-43.65-6.45l1.1-4.07c11.28,3.98,26.37,6.23,42.55,6.23s31.26-2.25,42.55-6.23l1.11,4.07Z"/>
          <path class="cls-1" d="m172.08,95.26c-8.93,2.47-19.5,3.83-30.6,3.83s-21.66-1.36-30.6-3.83l1.5-3.96c8.53,2.26,18.55,3.5,29.1,3.5s20.58-1.24,29.11-3.5l1.49,3.96Z"/>
        </g>
      </g>
      <path class="cls-2" d="m269.08,66.51c-7.06-14.28-16.56-29.2-28.7-39.75-11.38-10.97-24.55-20.05-38.84-26.76l5.1,3.01c31.59,19.06,56.28,49.29,65.38,85.38,10.69,42.39-.03,87.7-28.61,120.8-20.59,23.85-48.66,38.83-79.41,44.53-7.13,1.16-15.28,1.73-22.52,1.73-7.24,0-15.39-.57-22.52-1.73-30.75-5.7-58.82-20.68-79.41-44.53C10.97,176.09.25,130.78,10.94,88.39,20.04,52.3,44.74,22.07,76.32,3.01l5.1-3.01c-14.29,6.71-27.46,15.79-38.84,26.76-12.14,10.55-21.64,25.47-28.7,39.75C-2.63,99.94-4.31,140.34,8.3,175.29c17.2,47.7,59.14,81.48,108.53,91.06,7.84,1.35,16.7,2.05,24.66,2.13,7.96-.08,16.82-.78,24.66-2.13,49.39-9.57,91.33-43.36,108.53-91.06,12.6-34.95,10.93-75.35-5.59-108.78Z"/>
    </g>
  </g>
</svg>